<mxfile host="65bd71144e">
    <diagram id="8Qg_nIMV9OB8rsXuzSRV" name="Page-1">
        <mxGraphModel dx="798" dy="1504" grid="1" gridSize="10" guides="1" tooltips="1" connect="1" arrows="1" fold="1" page="1" pageScale="1" pageWidth="827" pageHeight="1169" math="0" shadow="0">
            <root>
                <mxCell id="0"/>
                <mxCell id="1" parent="0"/>
                <mxCell id="92gVsKrRBEqgrs6ssSv0-2" value="Server" style="swimlane;fillColor=#f5f5f5;strokeColor=#666666;fontColor=#333333;" parent="1" vertex="1">
                    <mxGeometry x="170" y="-80" width="440" height="345" as="geometry"/>
                </mxCell>
                <mxCell id="92gVsKrRBEqgrs6ssSv0-21" style="edgeStyle=orthogonalEdgeStyle;rounded=0;orthogonalLoop=1;jettySize=auto;html=1;exitX=0;exitY=0.5;exitDx=0;exitDy=0;entryX=1;entryY=0.5;entryDx=0;entryDy=0;" parent="92gVsKrRBEqgrs6ssSv0-2" source="92gVsKrRBEqgrs6ssSv0-12" target="92gVsKrRBEqgrs6ssSv0-9" edge="1">
                    <mxGeometry relative="1" as="geometry"/>
                </mxCell>
                <mxCell id="92gVsKrRBEqgrs6ssSv0-12" value="Frontend" style="swimlane;fillColor=#ffe6cc;strokeColor=#d79b00;" parent="92gVsKrRBEqgrs6ssSv0-2" vertex="1">
                    <mxGeometry x="304" y="90" width="120" height="90" as="geometry"/>
                </mxCell>
                <mxCell id="92gVsKrRBEqgrs6ssSv0-13" value="- React&lt;br&gt;&lt;font color=&quot;#009900&quot;&gt;- Svelte&lt;br&gt;&lt;/font&gt;- React Native" style="text;html=1;strokeColor=none;fillColor=none;align=left;verticalAlign=top;whiteSpace=wrap;rounded=0;" parent="92gVsKrRBEqgrs6ssSv0-12" vertex="1">
                    <mxGeometry x="10" y="30" width="100" height="50" as="geometry"/>
                </mxCell>
                <mxCell id="92gVsKrRBEqgrs6ssSv0-9" value="Backend" style="swimlane;fillColor=#d5e8d4;strokeColor=#82b366;" parent="92gVsKrRBEqgrs6ssSv0-2" vertex="1">
                    <mxGeometry x="164" y="90" width="120" height="90" as="geometry"/>
                </mxCell>
                <mxCell id="92gVsKrRBEqgrs6ssSv0-10" value="- Express&lt;br&gt;&lt;font color=&quot;#009900&quot;&gt;- Sapper&lt;br&gt;&lt;/font&gt;- ASP.NET" style="text;html=1;strokeColor=none;fillColor=none;align=left;verticalAlign=top;whiteSpace=wrap;rounded=0;" parent="92gVsKrRBEqgrs6ssSv0-9" vertex="1">
                    <mxGeometry x="10" y="30" width="100" height="50" as="geometry"/>
                </mxCell>
                <mxCell id="92gVsKrRBEqgrs6ssSv0-46" value="&lt;font color=&quot;#009900&quot;&gt;- VPS&amp;nbsp;&lt;br&gt;&lt;/font&gt;- Self hosted&lt;br&gt;- Cloud Container Runtime" style="text;html=1;align=left;verticalAlign=middle;resizable=0;points=[];autosize=1;strokeColor=none;fillColor=none;fontSize=11;" parent="92gVsKrRBEqgrs6ssSv0-2" vertex="1">
                    <mxGeometry x="10" y="30" width="150" height="40" as="geometry"/>
                </mxCell>
                <mxCell id="Vu7_HCZN-HPVyp-VErGH-6" value="Database" style="swimlane;fillColor=#dae8fc;strokeColor=#6c8ebf;" parent="92gVsKrRBEqgrs6ssSv0-2" vertex="1">
                    <mxGeometry x="10" y="90" width="130" height="240" as="geometry"/>
                </mxCell>
                <mxCell id="Vu7_HCZN-HPVyp-VErGH-4" value="Sensor-Data" style="swimlane;fillColor=#f8cecc;strokeColor=#b85450;" parent="Vu7_HCZN-HPVyp-VErGH-6" vertex="1">
                    <mxGeometry x="15" y="40" width="100" height="90" as="geometry"/>
                </mxCell>
                <mxCell id="Vu7_HCZN-HPVyp-VErGH-5" value="&lt;font color=&quot;#009900&quot;&gt;- InfluxDB&lt;br&gt;&lt;/font&gt;- Redis&lt;br&gt;- MySQL" style="text;html=1;strokeColor=none;fillColor=none;align=left;verticalAlign=top;whiteSpace=wrap;rounded=0;" parent="Vu7_HCZN-HPVyp-VErGH-4" vertex="1">
                    <mxGeometry x="10" y="30" width="80" height="50" as="geometry"/>
                </mxCell>
                <mxCell id="Vu7_HCZN-HPVyp-VErGH-7" value="User-Data" style="swimlane;fillColor=#e1d5e7;strokeColor=#9673a6;" parent="Vu7_HCZN-HPVyp-VErGH-6" vertex="1">
                    <mxGeometry x="15" y="140" width="100" height="90" as="geometry"/>
                </mxCell>
                <mxCell id="Vu7_HCZN-HPVyp-VErGH-9" value="&lt;font color=&quot;#009900&quot;&gt;- PostgreSQL&lt;br&gt;&lt;/font&gt;- MongoDB&lt;br&gt;- Neo4J" style="text;html=1;strokeColor=none;fillColor=none;align=left;verticalAlign=middle;whiteSpace=wrap;rounded=0;" parent="Vu7_HCZN-HPVyp-VErGH-7" vertex="1">
                    <mxGeometry x="10" y="35" width="80" height="45" as="geometry"/>
                </mxCell>
                <mxCell id="92gVsKrRBEqgrs6ssSv0-35" style="edgeStyle=orthogonalEdgeStyle;rounded=0;orthogonalLoop=1;jettySize=auto;html=1;exitX=0.5;exitY=0;exitDx=0;exitDy=0;" parent="1" source="92gVsKrRBEqgrs6ssSv0-7" edge="1">
                    <mxGeometry relative="1" as="geometry">
                        <mxPoint x="330" y="265" as="targetPoint"/>
                        <Array as="points">
                            <mxPoint x="195" y="300"/>
                            <mxPoint x="330" y="300"/>
                            <mxPoint x="330" y="265"/>
                        </Array>
                    </mxGeometry>
                </mxCell>
                <mxCell id="92gVsKrRBEqgrs6ssSv0-7" value="Data-Client" style="swimlane;fillColor=#d5e8d4;strokeColor=#82b366;" parent="1" vertex="1">
                    <mxGeometry x="150" y="335" width="90" height="60" as="geometry"/>
                </mxCell>
                <mxCell id="92gVsKrRBEqgrs6ssSv0-8" value="&lt;font color=&quot;#009900&quot;&gt;- Python&lt;/font&gt;" style="text;html=1;strokeColor=none;fillColor=none;align=left;verticalAlign=top;whiteSpace=wrap;rounded=0;" parent="92gVsKrRBEqgrs6ssSv0-7" vertex="1">
                    <mxGeometry x="10" y="30" width="70" height="20" as="geometry"/>
                </mxCell>
                <mxCell id="92gVsKrRBEqgrs6ssSv0-39" style="edgeStyle=orthogonalEdgeStyle;rounded=0;orthogonalLoop=1;jettySize=auto;html=1;" parent="1" source="92gVsKrRBEqgrs6ssSv0-23" edge="1">
                    <mxGeometry relative="1" as="geometry">
                        <mxPoint x="330" y="265" as="targetPoint"/>
                    </mxGeometry>
                </mxCell>
                <mxCell id="92gVsKrRBEqgrs6ssSv0-23" value="API" style="swimlane;fillColor=#d5e8d4;strokeColor=#82b366;" parent="1" vertex="1">
                    <mxGeometry x="300" y="335" width="60" height="60" as="geometry"/>
                </mxCell>
                <mxCell id="92gVsKrRBEqgrs6ssSv0-24" value="&lt;font color=&quot;#009900&quot;&gt;- Http&lt;/font&gt;" style="text;html=1;strokeColor=none;fillColor=none;align=left;verticalAlign=top;whiteSpace=wrap;rounded=0;" parent="92gVsKrRBEqgrs6ssSv0-23" vertex="1">
                    <mxGeometry x="10" y="30" width="40" height="20" as="geometry"/>
                </mxCell>
                <mxCell id="92gVsKrRBEqgrs6ssSv0-38" style="edgeStyle=orthogonalEdgeStyle;rounded=0;orthogonalLoop=1;jettySize=auto;html=1;" parent="1" source="92gVsKrRBEqgrs6ssSv0-25" edge="1">
                    <mxGeometry relative="1" as="geometry">
                        <mxPoint x="470" y="265" as="targetPoint"/>
                    </mxGeometry>
                </mxCell>
                <mxCell id="92gVsKrRBEqgrs6ssSv0-25" value="EndUser-Client" style="swimlane;fillColor=#ffe6cc;strokeColor=#d79b00;" parent="1" vertex="1">
                    <mxGeometry x="410" y="325" width="120" height="90" as="geometry"/>
                </mxCell>
                <mxCell id="92gVsKrRBEqgrs6ssSv0-26" value="&lt;font color=&quot;#009900&quot;&gt;- Browser&lt;br&gt;&lt;/font&gt;- App&lt;br&gt;- Electron" style="text;html=1;strokeColor=none;fillColor=none;align=left;verticalAlign=top;whiteSpace=wrap;rounded=0;" parent="92gVsKrRBEqgrs6ssSv0-25" vertex="1">
                    <mxGeometry x="10" y="30" width="100" height="50" as="geometry"/>
                </mxCell>
                <mxCell id="92gVsKrRBEqgrs6ssSv0-41" value="Legende" style="swimlane;fontStyle=0;childLayout=stackLayout;horizontal=1;startSize=30;horizontalStack=0;resizeParent=1;resizeParentMax=0;resizeLast=0;collapsible=1;marginBottom=0;labelBackgroundColor=none;fillColor=none;align=left;verticalAlign=top;" parent="1" vertex="1">
                    <mxGeometry x="150" y="440" width="340" height="120" as="geometry"/>
                </mxCell>
                <mxCell id="92gVsKrRBEqgrs6ssSv0-42" value="Farben: Visueller Zusammhang der Clients und des Servers" style="text;strokeColor=none;fillColor=none;align=left;verticalAlign=middle;spacingLeft=4;spacingRight=4;overflow=hidden;points=[[0,0.5],[1,0.5]];portConstraint=eastwest;rotatable=0;" parent="92gVsKrRBEqgrs6ssSv0-41" vertex="1">
                    <mxGeometry y="30" width="340" height="30" as="geometry"/>
                </mxCell>
                <mxCell id="92gVsKrRBEqgrs6ssSv0-43" value="Pfeile: Richtung der Anfragen" style="text;strokeColor=none;fillColor=none;align=left;verticalAlign=middle;spacingLeft=4;spacingRight=4;overflow=hidden;points=[[0,0.5],[1,0.5]];portConstraint=eastwest;rotatable=0;" parent="92gVsKrRBEqgrs6ssSv0-41" vertex="1">
                    <mxGeometry y="60" width="340" height="30" as="geometry"/>
                </mxCell>
                <mxCell id="92gVsKrRBEqgrs6ssSv0-44" value="Gr체n gef채rbter Text: Gew채hlte Tools f체r Varianten" style="text;strokeColor=none;fillColor=none;align=left;verticalAlign=middle;spacingLeft=4;spacingRight=4;overflow=hidden;points=[[0,0.5],[1,0.5]];portConstraint=eastwest;rotatable=0;" parent="92gVsKrRBEqgrs6ssSv0-41" vertex="1">
                    <mxGeometry y="90" width="340" height="30" as="geometry"/>
                </mxCell>
                <mxCell id="Vu7_HCZN-HPVyp-VErGH-12" style="edgeStyle=orthogonalEdgeStyle;rounded=0;orthogonalLoop=1;jettySize=auto;html=1;exitX=0;exitY=0.5;exitDx=0;exitDy=0;" parent="1" source="92gVsKrRBEqgrs6ssSv0-9" edge="1">
                    <mxGeometry relative="1" as="geometry">
                        <mxPoint x="310" y="54.66666666666674" as="targetPoint"/>
                    </mxGeometry>
                </mxCell>
            </root>
        </mxGraphModel>
    </diagram>
</mxfile>